<?xml version="1.0" encoding="UTF-8"?>
<svg xmlns="http://www.w3.org/2000/svg" xmlns:xlink="http://www.w3.org/1999/xlink" width="98px" height="98px" viewBox="0 0 98 98" version="1.1">
<g id="surface1">
<path style=" stroke:none;fill-rule:nonzero;fill:rgb(3.921569%,26.666668%,52.156866%);fill-opacity:1;" d="M 48.90625 -0.289062 C 50.566406 -0.304688 52.226562 -0.324219 53.9375 -0.34375 C 55.542969 -0.347656 57.148438 -0.351562 58.804688 -0.351562 C 60.265625 -0.359375 61.726562 -0.367188 63.230469 -0.371094 C 67.671875 0.0273438 70.992188 1.210938 75.03125 3.0625 C 74.527344 4.074219 74.019531 5.082031 73.5 6.125 C 72.488281 6.125 71.480469 6.125 70.4375 6.125 C 70.4375 7.136719 70.4375 8.144531 70.4375 9.1875 C 72.046875 7.957031 72.046875 7.957031 73.691406 6.699219 C 78.09375 4.59375 78.09375 4.59375 82.976562 5.742188 C 85.453125 6.84375 87.917969 7.976562 90.34375 9.1875 C 90.972656 11.890625 90.972656 11.890625 91.3125 15.367188 C 91.441406 16.605469 91.570312 17.84375 91.703125 19.121094 C 91.820312 20.421875 91.941406 21.722656 92.066406 23.0625 C 92.199219 24.371094 92.332031 25.679688 92.46875 27.027344 C 92.792969 30.265625 93.101562 33.507812 93.40625 36.75 C 92.394531 36.75 91.386719 36.75 90.34375 36.75 C 90.34375 37.761719 90.34375 38.769531 90.34375 39.8125 C 91.355469 39.8125 92.363281 39.8125 93.40625 39.8125 C 93.296875 40.753906 93.183594 41.695312 93.070312 42.664062 C 92.859375 44.523438 92.859375 44.523438 92.640625 46.414062 C 92.425781 48.253906 92.425781 48.253906 92.210938 50.128906 C 91.800781 53.777344 91.800781 53.777344 91.875 58.1875 C 92.886719 59.136719 93.894531 60.082031 94.9375 61.058594 C 98 64.3125 98 64.3125 98.382812 68.523438 C 98.257812 69.660156 98.128906 70.796875 98 71.96875 C 95.472656 72.980469 92.945312 73.988281 90.34375 75.03125 C 89.839844 78.570312 89.332031 82.105469 88.8125 85.75 C 85.023438 87.375 81.570312 88.742188 77.496094 89.433594 C 73.1875 90.414062 70.296875 92.019531 66.515625 94.265625 C 57.589844 98.816406 49.675781 99.675781 39.8125 98 C 35.601562 96.355469 31.835938 94.476562 27.953125 92.167969 C 24.214844 90.195312 20.988281 89.515625 16.84375 88.8125 C 14.273438 87.839844 11.714844 86.832031 9.1875 85.75 C 8.683594 82.210938 8.175781 78.675781 7.65625 75.03125 C 5.128906 74.019531 2.601562 73.011719 0 71.96875 C -0.476562 68.617188 -0.476562 68.617188 0 64.3125 C 3.828125 60.007812 3.828125 60.007812 7.65625 56.65625 C 6.898438 55.046875 6.898438 55.046875 6.125 53.402344 C 4.457031 48.601562 4.359375 44.855469 4.59375 39.8125 C 5.605469 39.8125 6.613281 39.8125 7.65625 39.8125 C 7.65625 38.800781 7.65625 37.792969 7.65625 36.75 C 6.644531 36.75 5.636719 36.75 4.59375 36.75 C 4.859375 32.242188 5.1875 27.753906 5.550781 23.257812 C 5.621094 21.980469 5.6875 20.703125 5.761719 19.390625 C 6.082031 15.765625 6.464844 12.625 7.65625 9.1875 C 12.09375 5.914062 12.09375 5.914062 16.84375 4.59375 C 18.359375 5.097656 19.875 5.605469 21.4375 6.125 C 21.4375 7.136719 21.4375 8.144531 21.4375 9.1875 C 23.457031 9.1875 25.480469 9.1875 27.5625 9.1875 C 27.5625 8.175781 27.5625 7.167969 27.5625 6.125 C 26.046875 5.621094 24.53125 5.113281 22.96875 4.59375 C 24.5 1.53125 24.5 1.53125 27.136719 0.589844 C 34.320312 -0.625 41.636719 -0.28125 48.90625 -0.289062 Z M 18.375 68.90625 C 18.878906 70.421875 19.386719 71.9375 19.90625 73.5 C 21.421875 72.996094 22.9375 72.488281 24.5 71.96875 C 22.480469 70.957031 20.457031 69.949219 18.375 68.90625 Z M 76.5625 70.4375 C 75.550781 71.449219 74.542969 72.457031 73.5 73.5 C 75.015625 73.5 76.53125 73.5 78.09375 73.5 C 77.589844 72.488281 77.082031 71.480469 76.5625 70.4375 Z M 76.5625 70.4375 "/>
<path style=" stroke:none;fill-rule:nonzero;fill:rgb(64.313728%,3.529412%,32.941177%);fill-opacity:1;" d="M 47.46875 7.65625 C 48.480469 7.65625 49.488281 7.65625 50.53125 7.65625 C 50.53125 9.675781 50.53125 11.699219 50.53125 13.78125 C 54.910156 15.03125 58.804688 15.519531 63.355469 15.503906 C 64.472656 15.507812 65.589844 15.511719 66.742188 15.515625 C 71.113281 15.273438 75.320312 14.5625 79.625 13.78125 C 80.390625 18.316406 81.152344 22.855469 81.886719 27.394531 C 82.484375 30.941406 83.183594 34.476562 83.929688 37.992188 C 84.464844 47.078125 80.417969 53 74.9375 59.816406 C 68.859375 66.476562 61.691406 71.121094 53.59375 75.03125 C 52.582031 75.03125 51.574219 75.03125 50.53125 75.03125 C 50.53125 76.546875 50.53125 78.0625 50.53125 79.625 C 49.519531 79.625 48.511719 79.625 47.46875 79.625 C 47.46875 78.109375 47.46875 76.59375 47.46875 75.03125 C 45.621094 74.605469 45.621094 74.605469 43.734375 74.171875 C 31.441406 69.207031 22.785156 60.285156 15.601562 49.382812 C 13.183594 42.773438 13.84375 37.425781 15.3125 30.625 C 15.816406 29.613281 16.324219 28.605469 16.84375 27.5625 C 17.1875 25.210938 17.46875 22.847656 17.703125 20.480469 C 17.832031 19.230469 17.960938 17.976562 18.09375 16.6875 C 18.1875 15.730469 18.28125 14.769531 18.375 13.78125 C 19.210938 14.027344 20.042969 14.273438 20.90625 14.527344 C 25.019531 15.425781 28.808594 15.570312 33.015625 15.597656 C 35.199219 15.632812 35.199219 15.632812 37.425781 15.664062 C 41.714844 15.59375 41.714844 15.59375 45.9375 12.25 C 46.441406 10.734375 46.949219 9.21875 47.46875 7.65625 Z M 47.46875 7.65625 "/>
<path style=" stroke:none;fill-rule:nonzero;fill:rgb(7.058824%,36.470589%,16.862746%);fill-opacity:1;" d="M 9.28125 58.28125 C 12.699219 59.9375 14.496094 61.324219 16.84375 64.3125 C 17.222656 65.605469 17.601562 66.902344 17.992188 68.234375 C 19.617188 72.484375 19.617188 72.484375 24.59375 73.5 C 25.542969 73.703125 26.492188 73.902344 27.46875 74.109375 C 32.429688 75.558594 36.53125 78.363281 40.871094 81.121094 C 45.484375 83.164062 48.582031 83.234375 53.59375 82.6875 C 57.976562 80.746094 57.976562 80.746094 62.109375 78.09375 C 67.820312 74.59375 71.347656 72.914062 78.09375 73.5 C 78.472656 72.109375 78.851562 70.722656 79.242188 69.289062 C 81.246094 64.082031 82.804688 61.480469 87.28125 58.1875 C 91.175781 58.304688 92.941406 59.386719 96.085938 61.632812 C 98.632812 65.195312 98.347656 67.6875 98 71.96875 C 95.472656 72.980469 92.945312 73.988281 90.34375 75.03125 C 89.839844 78.570312 89.332031 82.105469 88.8125 85.75 C 85.023438 87.375 81.570312 88.742188 77.496094 89.433594 C 73.1875 90.414062 70.296875 92.019531 66.515625 94.265625 C 57.589844 98.816406 49.675781 99.675781 39.8125 98 C 35.601562 96.355469 31.835938 94.476562 27.953125 92.167969 C 24.214844 90.195312 20.988281 89.515625 16.84375 88.8125 C 14.273438 87.839844 11.714844 86.832031 9.1875 85.75 C 8.683594 82.210938 8.175781 78.675781 7.65625 75.03125 C 3.867188 73.515625 3.867188 73.515625 0 71.96875 C -0.566406 66.867188 -0.421875 64.882812 2.679688 60.675781 C 6.125 58.1875 6.125 58.1875 9.28125 58.28125 Z M 9.28125 58.28125 "/>
<path style=" stroke:none;fill-rule:nonzero;fill:rgb(65.098041%,6.666667%,29.803923%);fill-opacity:1;" d="M 50.53125 13.78125 C 52.550781 14.285156 54.574219 14.792969 56.65625 15.3125 C 58.886719 15.449219 61.121094 15.511719 63.355469 15.503906 C 64.472656 15.507812 65.589844 15.511719 66.742188 15.515625 C 71.113281 15.273438 75.320312 14.5625 79.625 13.78125 C 80.390625 18.316406 81.152344 22.855469 81.886719 27.394531 C 82.484375 30.941406 83.183594 34.476562 83.929688 37.992188 C 84.464844 47.078125 80.417969 53 74.9375 59.8125 C 68.859375 66.476562 61.691406 71.121094 53.59375 75.03125 C 52.582031 75.03125 51.574219 75.03125 50.53125 75.03125 C 50.53125 62.902344 50.53125 50.777344 50.53125 38.28125 C 60.132812 38.28125 69.734375 38.28125 79.625 38.28125 C 79.625 37.269531 79.625 36.261719 79.625 35.21875 C 70.023438 35.21875 60.421875 35.21875 50.53125 35.21875 C 50.53125 28.144531 50.53125 21.070312 50.53125 13.78125 Z M 50.53125 13.78125 "/>
<path style=" stroke:none;fill-rule:nonzero;fill:rgb(67.450982%,3.137255%,30.19608%);fill-opacity:1;" d="M 21.21875 38.105469 C 23.035156 38.121094 23.035156 38.121094 24.890625 38.132812 C 26.066406 38.136719 27.242188 38.140625 28.457031 38.144531 C 29.960938 38.15625 31.46875 38.171875 33.015625 38.183594 C 40.171875 38.234375 40.171875 38.234375 47.46875 38.28125 C 47.46875 50.410156 47.46875 62.535156 47.46875 75.03125 C 36.046875 71.222656 24.550781 64.402344 18.375 53.59375 C 17.390625 49.007812 16.796875 44.507812 16.84375 39.8125 C 18.375 38.28125 18.375 38.28125 21.21875 38.105469 Z M 21.21875 38.105469 "/>
<path style=" stroke:none;fill-rule:nonzero;fill:rgb(4.313726%,30.588236%,49.411765%);fill-opacity:1;" d="M 78.09375 78.09375 C 78.851562 80.367188 78.851562 80.367188 79.625 82.6875 C 75.8125 85.019531 71.988281 87.308594 68.140625 89.578125 C 67.074219 90.234375 66.007812 90.894531 64.910156 91.570312 C 57.105469 96.121094 51.90625 97.40625 42.875 96.46875 C 34.777344 94.066406 28.308594 89.195312 22.96875 82.6875 C 22.96875 81.171875 22.96875 79.65625 22.96875 78.09375 C 23.78125 78.664062 24.59375 79.234375 25.433594 79.824219 C 26.515625 80.546875 27.597656 81.269531 28.710938 82.015625 C 29.777344 82.746094 30.84375 83.472656 31.941406 84.226562 C 35.894531 86.066406 37.300781 85.5 41.34375 84.21875 C 42.355469 84.722656 43.363281 85.230469 44.40625 85.75 C 54.003906 87.148438 58.914062 83.917969 66.71875 78.421875 C 71.246094 76.15625 73.347656 76.617188 78.09375 78.09375 Z M 78.09375 78.09375 "/>
<path style=" stroke:none;fill-rule:nonzero;fill:rgb(81.176472%,57.647061%,37.254903%);fill-opacity:1;" d="M 47.46875 7.65625 C 48.480469 7.65625 49.488281 7.65625 50.53125 7.65625 C 50.53125 16.75 50.53125 25.847656 50.53125 35.21875 C 60.132812 35.21875 69.734375 35.21875 79.625 35.21875 C 79.625 36.230469 79.625 37.238281 79.625 38.28125 C 70.023438 38.28125 60.421875 38.28125 50.53125 38.28125 C 50.53125 51.925781 50.53125 65.566406 50.53125 79.625 C 49.519531 79.625 48.511719 79.625 47.46875 79.625 C 47.46875 65.980469 47.46875 52.339844 47.46875 38.28125 C 37.363281 38.28125 27.257812 38.28125 16.84375 38.28125 C 16.84375 37.269531 16.84375 36.261719 16.84375 35.21875 C 26.949219 35.21875 37.054688 35.21875 47.46875 35.21875 C 47.46875 26.125 47.46875 17.027344 47.46875 7.65625 Z M 47.46875 7.65625 "/>
<path style=" stroke:none;fill-rule:nonzero;fill:rgb(10.196079%,39.607844%,14.117648%);fill-opacity:1;" d="M 9.570312 58.570312 C 10.898438 59.140625 10.898438 59.140625 12.25 59.71875 C 9.976562 61.992188 9.976562 61.992188 7.65625 64.3125 C 8.667969 65.324219 9.675781 66.332031 10.71875 67.375 C 11.351562 71.023438 11.351562 71.023438 11.675781 75.222656 C 11.789062 76.617188 11.90625 78.011719 12.023438 79.445312 C 12.097656 80.515625 12.171875 81.585938 12.25 82.6875 C 14.269531 81.675781 16.292969 80.667969 18.375 79.625 C 18.976562 80.285156 19.574219 80.945312 20.195312 81.621094 C 23.433594 84.652344 26.8125 86.746094 30.625 89.003906 C 31.953125 89.796875 33.277344 90.589844 34.644531 91.410156 C 41.324219 95.078125 47.621094 95.941406 55.125 94.9375 C 59.167969 93.34375 62.6875 91.175781 66.324219 88.8125 C 76.058594 82.6875 76.058594 82.6875 81.15625 82.6875 C 81.15625 83.699219 81.15625 84.707031 81.15625 85.75 C 77.773438 87.652344 74.386719 89.539062 70.980469 91.398438 C 68.289062 92.898438 65.660156 94.511719 63.070312 96.179688 C 54.070312 99.535156 44.5 99.808594 35.488281 96.332031 C 32.9375 95.015625 30.417969 93.632812 27.953125 92.167969 C 24.214844 90.195312 20.988281 89.515625 16.84375 88.8125 C 14.273438 87.839844 11.714844 86.832031 9.1875 85.75 C 8.683594 82.210938 8.175781 78.675781 7.65625 75.03125 C 3.867188 73.515625 3.867188 73.515625 0 71.96875 C -0.566406 66.867188 -0.421875 64.882812 2.679688 60.675781 C 6.125 58.1875 6.125 58.1875 9.570312 58.570312 Z M 9.570312 58.570312 "/>
<path style=" stroke:none;fill-rule:nonzero;fill:rgb(69.411767%,1.960784%,31.764707%);fill-opacity:1;" d="M 55.125 41.34375 C 60.179688 41.34375 65.230469 41.34375 70.4375 41.34375 C 70.4375 43.871094 70.4375 46.398438 70.4375 49 C 67.40625 50.011719 64.375 51.019531 61.25 52.0625 C 61.25 53.578125 61.25 55.09375 61.25 56.65625 C 62.386719 56.402344 63.523438 56.152344 64.695312 55.890625 C 68.90625 55.125 68.90625 55.125 75.03125 55.125 C 74.476562 59.453125 73.667969 61.085938 70.496094 64.191406 C 69.277344 65.117188 68.058594 66.039062 66.800781 66.992188 C 65.589844 67.933594 64.375 68.871094 63.128906 69.839844 C 59.71875 71.96875 59.71875 71.96875 55.125 71.96875 C 55.125 61.863281 55.125 51.757812 55.125 41.34375 Z M 55.125 41.34375 "/>
<path style=" stroke:none;fill-rule:nonzero;fill:rgb(70.980394%,3.137255%,30.980393%);fill-opacity:1;" d="M 50.53125 13.78125 C 51.792969 14.253906 53.058594 14.730469 54.359375 15.21875 C 58.570312 16.496094 61.921875 17.175781 66.226562 17.609375 C 71.96875 18.375 71.96875 18.375 75.03125 21.4375 C 75.03125 24.976562 75.03125 28.511719 75.03125 32.15625 C 66.945312 32.15625 58.859375 32.15625 50.53125 32.15625 C 50.53125 26.09375 50.53125 20.027344 50.53125 13.78125 Z M 50.53125 13.78125 "/>
<path style=" stroke:none;fill-rule:nonzero;fill:rgb(5.490196%,30.19608%,57.647061%);fill-opacity:1;" d="M 84.21875 44.40625 C 85.230469 44.40625 86.238281 44.40625 87.28125 44.40625 C 88.292969 46.933594 89.300781 49.460938 90.34375 52.0625 C 89.332031 53.074219 88.324219 54.082031 87.28125 55.125 C 85.765625 54.621094 84.25 54.113281 82.6875 53.59375 C 82.6875 54.605469 82.6875 55.613281 82.6875 56.65625 C 81.171875 57.667969 79.65625 58.675781 78.09375 59.71875 C 78.03125 61.644531 77.96875 63.570312 77.902344 65.554688 C 77.523438 69.996094 77.121094 71.472656 73.734375 74.476562 C 67.003906 78.394531 61.53125 80.644531 53.59375 79.625 C 55.585938 73.332031 57.464844 70.839844 63.164062 67.566406 C 71.644531 62.265625 77.207031 56.125 82.304688 47.5625 C 82.9375 46.523438 83.566406 45.480469 84.21875 44.40625 Z M 84.21875 44.40625 "/>
<path style=" stroke:none;fill-rule:nonzero;fill:rgb(12.156863%,34.117648%,28.235295%);fill-opacity:1;" d="M 11.578125 61.15625 C 13.425781 61.203125 13.425781 61.203125 15.3125 61.25 C 16.210938 63.855469 16.210938 63.855469 17.132812 66.515625 C 19.273438 72.28125 19.273438 72.28125 24.023438 73.40625 C 25.773438 73.453125 25.773438 73.453125 27.5625 73.5 C 27.5625 74.511719 27.5625 75.519531 27.5625 76.5625 C 31.101562 78.582031 34.636719 80.605469 38.28125 82.6875 C 36.765625 84.960938 36.765625 84.960938 35.21875 87.28125 C 31.175781 84.753906 27.132812 82.226562 22.96875 79.625 C 24.988281 82.152344 27.011719 84.679688 29.09375 87.28125 C 20.289062 84.601562 20.289062 84.601562 16.84375 81.15625 C 15.328125 82.167969 13.8125 83.175781 12.25 84.21875 C 9.1875 81.15625 10.050781 75.269531 9.769531 71.121094 C 9.398438 66.992188 9.398438 66.992188 6.125 62.78125 C 7.65625 61.25 7.65625 61.25 11.578125 61.15625 Z M 11.578125 61.15625 "/>
<path style=" stroke:none;fill-rule:nonzero;fill:rgb(68.627453%,4.705882%,30.980393%);fill-opacity:1;" d="M 47.46875 12.25 C 47.46875 18.820312 47.46875 25.386719 47.46875 32.15625 C 46.964844 32.15625 46.457031 32.15625 45.9375 32.15625 C 45.433594 27.609375 44.925781 23.0625 44.40625 18.375 C 43.902344 22.921875 43.394531 27.46875 42.875 32.15625 C 36.8125 32.15625 30.746094 32.15625 24.5 32.15625 C 26.515625 22.882812 26.515625 22.882812 29.09375 18.375 C 33.507812 15.828125 37.925781 14.832031 42.875 13.78125 C 45.9375 12.25 45.9375 12.25 47.46875 12.25 Z M 47.46875 12.25 "/>
<path style=" stroke:none;fill-rule:nonzero;fill:rgb(69.411767%,1.568628%,31.764707%);fill-opacity:1;" d="M 24.5 42.875 C 30.5625 42.875 36.628906 42.875 42.875 42.875 C 42.875 52.476562 42.875 62.078125 42.875 71.96875 C 35.339844 70.460938 33.066406 69.1875 27.5625 64.3125 C 28.066406 61.785156 28.574219 59.257812 29.09375 56.65625 C 34.398438 55.898438 34.398438 55.898438 39.8125 55.125 C 39.308594 51.585938 38.800781 48.050781 38.28125 44.40625 C 33.734375 44.40625 29.1875 44.40625 24.5 44.40625 C 24.5 43.902344 24.5 43.394531 24.5 42.875 Z M 24.5 42.875 "/>
<path style=" stroke:none;fill-rule:nonzero;fill:rgb(64.313728%,5.490196%,32.941177%);fill-opacity:1;" d="M 81.15625 35.21875 C 82.167969 35.21875 83.175781 35.21875 84.21875 35.21875 C 83.558594 44.640625 81.6875 50.253906 76.5625 58.1875 C 74.542969 57.175781 72.519531 56.167969 70.4375 55.125 C 69.425781 56.136719 68.417969 57.144531 67.375 58.1875 C 63.355469 57.613281 63.355469 57.613281 59.71875 56.65625 C 59.71875 54.636719 59.71875 52.613281 59.71875 50.53125 C 62.75 50.027344 65.78125 49.519531 68.90625 49 C 69.410156 46.472656 69.917969 43.945312 70.4375 41.34375 C 75.742188 40.585938 75.742188 40.585938 81.15625 39.8125 C 81.15625 38.296875 81.15625 36.78125 81.15625 35.21875 Z M 81.15625 35.21875 "/>
<path style=" stroke:none;fill-rule:nonzero;fill:rgb(58.823532%,7.058824%,25.882354%);fill-opacity:1;" d="M 32.214844 37.980469 C 39.84375 38.132812 39.84375 38.132812 47.46875 38.28125 C 47.46875 50.410156 47.46875 62.535156 47.46875 75.03125 C 44.941406 74.527344 42.414062 74.019531 39.8125 73.5 C 40.824219 72.996094 41.832031 72.488281 42.875 71.96875 C 42.875 61.863281 42.875 51.757812 42.875 41.34375 C 36.8125 41.34375 30.746094 41.34375 24.5 41.34375 C 27.5625 38.28125 27.5625 38.28125 32.214844 37.980469 Z M 32.214844 37.980469 "/>
<path style=" stroke:none;fill-rule:nonzero;fill:rgb(9.411765%,40.784314%,12.941177%);fill-opacity:1;" d="M 90.25 58.570312 C 94 59.933594 95.675781 61.058594 98 64.3125 C 98.289062 68.429688 98.289062 68.429688 98 71.96875 C 95.472656 72.980469 92.945312 73.988281 90.34375 75.03125 C 89.839844 78.570312 89.332031 82.105469 88.8125 85.75 C 86.285156 86.761719 83.757812 87.769531 81.15625 88.8125 C 82.167969 86.792969 83.175781 84.769531 84.21875 82.6875 C 85.230469 83.191406 86.238281 83.699219 87.28125 84.21875 C 87.246094 83.054688 87.210938 81.894531 87.171875 80.695312 C 87.144531 79.171875 87.117188 77.652344 87.089844 76.085938 C 87.054688 74.574219 87.019531 73.0625 86.980469 71.507812 C 87.28125 67.375 87.28125 67.375 90.34375 62.78125 C 87.816406 63.285156 85.289062 63.792969 82.6875 64.3125 C 83.191406 62.796875 83.699219 61.28125 84.21875 59.71875 C 87.28125 58.1875 87.28125 58.1875 90.25 58.570312 Z M 90.25 58.570312 "/>
<path style=" stroke:none;fill-rule:nonzero;fill:rgb(18.431373%,38.039216%,55.29412%);fill-opacity:1;" d="M 21.4375 78.09375 C 22.359375 78.664062 23.285156 79.234375 24.238281 79.824219 C 25.460938 80.546875 26.683594 81.269531 27.945312 82.015625 C 29.152344 82.746094 30.363281 83.472656 31.605469 84.226562 C 35.773438 85.984375 37.164062 85.566406 41.34375 84.21875 C 42.355469 84.722656 43.363281 85.230469 44.40625 85.75 C 46.765625 85.855469 49.128906 85.878906 51.488281 85.84375 C 52.738281 85.832031 53.992188 85.816406 55.28125 85.804688 C 56.238281 85.785156 57.199219 85.769531 58.1875 85.75 C 57.175781 88.277344 56.167969 90.804688 55.125 93.40625 C 41.21875 94.511719 32.050781 90.050781 21.4375 81.15625 C 21.4375 80.144531 21.4375 79.136719 21.4375 78.09375 Z M 21.4375 78.09375 "/>
<path style=" stroke:none;fill-rule:nonzero;fill:rgb(72.549021%,20.392157%,32.156864%);fill-opacity:1;" d="M 68.046875 18.085938 C 71.96875 18.375 71.96875 18.375 75.03125 21.4375 C 75.222656 26.988281 75.222656 26.988281 75.03125 32.15625 C 70.484375 32.15625 65.9375 32.15625 61.25 32.15625 C 62.769531 18.492188 62.769531 18.492188 68.046875 18.085938 Z M 68.046875 18.085938 "/>
<path style=" stroke:none;fill-rule:nonzero;fill:rgb(7.450981%,36.862746%,13.725491%);fill-opacity:1;" d="M 81.15625 82.6875 C 81.15625 83.699219 81.15625 84.707031 81.15625 85.75 C 77.773438 87.652344 74.386719 89.539062 70.980469 91.398438 C 68.289062 92.898438 65.660156 94.511719 63.070312 96.179688 C 53.625 99.699219 43.554688 99.394531 34.164062 95.894531 C 30.625 93.40625 30.625 93.40625 29.09375 90.34375 C 32.53125 91.109375 35.46875 91.992188 38.664062 93.5 C 45.113281 95.699219 51.652344 96.304688 58.054688 93.785156 C 60.894531 92.234375 63.609375 90.574219 66.320312 88.8125 C 76.058594 82.6875 76.058594 82.6875 81.15625 82.6875 Z M 81.15625 82.6875 "/>
<path style=" stroke:none;fill-rule:nonzero;fill:rgb(63.529414%,5.882353%,28.627452%);fill-opacity:1;" d="M 85.75 61.25 C 88.90625 61.921875 88.90625 61.921875 91.875 62.78125 C 90.359375 65.054688 90.359375 65.054688 88.8125 67.375 C 88.113281 71.570312 88.113281 71.570312 87.855469 76.085938 C 87.742188 77.605469 87.625 79.128906 87.507812 80.695312 C 87.433594 81.859375 87.359375 83.019531 87.28125 84.21875 C 81.335938 81.574219 81.335938 81.574219 79.71875 77.804688 C 79.589844 71.941406 81.621094 67.976562 84.21875 62.78125 C 84.722656 62.277344 85.230469 61.769531 85.75 61.25 Z M 85.75 61.25 "/>
<path style=" stroke:none;fill-rule:nonzero;fill:rgb(63.921571%,5.882353%,29.019609%);fill-opacity:1;" d="M 7.65625 61.25 C 10.640625 61.554688 10.640625 61.554688 13.78125 62.78125 C 15.4375 65.394531 15.4375 65.394531 16.554688 68.617188 C 17.140625 70.195312 17.140625 70.195312 17.734375 71.808594 C 18.480469 75.558594 18.289062 77.621094 16.84375 81.15625 C 15.328125 82.167969 13.8125 83.175781 12.25 84.21875 C 9.1875 81.15625 10.050781 75.269531 9.769531 71.121094 C 9.398438 66.992188 9.398438 66.992188 6.125 62.78125 C 6.628906 62.277344 7.136719 61.769531 7.65625 61.25 Z M 7.65625 61.25 "/>
<path style=" stroke:none;fill-rule:nonzero;fill:rgb(57.254905%,7.058824%,24.705882%);fill-opacity:1;" d="M 42.875 16.84375 C 43.886719 17.347656 44.894531 17.855469 45.9375 18.375 C 46.863281 23.964844 47.078125 29.558594 47.46875 35.21875 C 39.382812 35.21875 31.296875 35.21875 22.96875 35.21875 C 23.472656 33.703125 23.980469 32.1875 24.5 30.625 C 30.5625 31.128906 36.628906 31.636719 42.875 32.15625 C 42.875 27.101562 42.875 22.050781 42.875 16.84375 Z M 42.875 16.84375 "/>
<path style=" stroke:none;fill-rule:nonzero;fill:rgb(43.137255%,37.254903%,36.862746%);fill-opacity:1;" d="M 31.484375 45.84375 C 33.222656 45.875 34.960938 45.90625 36.75 45.9375 C 37.253906 48.464844 37.761719 50.992188 38.28125 53.59375 C 31.460938 54.351562 31.460938 54.351562 24.5 55.125 C 24.433594 52.574219 24.4375 50.019531 24.5 47.46875 C 26.03125 45.9375 26.03125 45.9375 31.484375 45.84375 Z M 31.484375 45.84375 "/>
<path style=" stroke:none;fill-rule:nonzero;fill:rgb(8.235294%,41.568628%,11.372549%);fill-opacity:1;" d="M 9.570312 58.570312 C 10.898438 59.140625 10.898438 59.140625 12.25 59.71875 C 9.976562 61.992188 9.976562 61.992188 7.65625 64.3125 C 8.160156 64.816406 8.667969 65.324219 9.1875 65.84375 C 9.25 68.394531 9.253906 70.949219 9.1875 73.5 C 6.636719 73.566406 4.082031 73.5625 1.53125 73.5 C 0 71.96875 0 71.96875 -0.476562 68.429688 C 0 64.3125 0 64.3125 2.679688 60.675781 C 6.125 58.1875 6.125 58.1875 9.570312 58.570312 Z M 9.570312 58.570312 "/>
<path style=" stroke:none;fill-rule:nonzero;fill:rgb(58.431375%,9.411765%,26.666668%);fill-opacity:1;" d="M 52.0625 18.375 C 52.566406 18.375 53.074219 18.375 53.59375 18.375 C 53.59375 22.921875 53.59375 27.46875 53.59375 32.15625 C 58.140625 32.15625 62.6875 32.15625 67.375 32.15625 C 67.878906 31.144531 68.386719 30.136719 68.90625 29.09375 C 68.90625 30.105469 68.90625 31.113281 68.90625 32.15625 C 70.925781 32.15625 72.949219 32.15625 75.03125 32.15625 C 75.03125 33.167969 75.03125 34.175781 75.03125 35.21875 C 66.945312 35.21875 58.859375 35.21875 50.53125 35.21875 C 51.035156 29.660156 51.542969 24.101562 52.0625 18.375 Z M 52.0625 18.375 "/>
<path style=" stroke:none;fill-rule:nonzero;fill:rgb(56.470591%,4.705882%,24.705882%);fill-opacity:1;" d="M 50.53125 38.28125 C 58.617188 38.785156 66.703125 39.292969 75.03125 39.8125 C 75.03125 40.316406 75.03125 40.824219 75.03125 41.34375 C 68.460938 41.34375 61.894531 41.34375 55.125 41.34375 C 55.628906 51.957031 56.136719 62.566406 56.65625 73.5 C 55.644531 73.5 54.636719 73.5 53.59375 73.5 C 53.59375 62.886719 53.59375 52.277344 53.59375 41.34375 C 52.582031 41.34375 51.574219 41.34375 50.53125 41.34375 C 50.53125 40.332031 50.53125 39.324219 50.53125 38.28125 Z M 50.53125 38.28125 "/>
<path style=" stroke:none;fill-rule:nonzero;fill:rgb(73.725492%,30.588236%,32.549021%);fill-opacity:1;" d="M 29.09375 19.90625 C 30.105469 19.90625 31.113281 19.90625 32.15625 19.90625 C 36.75 28.710938 36.75 28.710938 36.75 32.15625 C 32.707031 32.15625 28.664062 32.15625 24.5 32.15625 C 27.371094 23.351562 27.371094 23.351562 29.09375 19.90625 Z M 29.09375 19.90625 "/>
<path style=" stroke:none;fill-rule:nonzero;fill:rgb(22.352941%,40.392157%,54.11765%);fill-opacity:1;" d="M 76.5625 79.625 C 76.46875 82.304688 76.46875 82.304688 75.03125 85.75 C 70.554688 89.34375 66.40625 92.089844 60.578125 91.492188 C 59.789062 91.113281 59 90.734375 58.1875 90.34375 C 62.472656 85.304688 69.820312 79.625 76.5625 79.625 Z M 76.5625 79.625 "/>
<path style=" stroke:none;fill-rule:nonzero;fill:rgb(6.666667%,26.274511%,49.019608%);fill-opacity:1;" d="M 42.875 73.5 C 44.390625 74.003906 45.90625 74.511719 47.46875 75.03125 C 47.46875 76.546875 47.46875 78.0625 47.46875 79.625 C 48.480469 79.625 49.488281 79.625 50.53125 79.625 C 50.53125 78.109375 50.53125 76.59375 50.53125 75.03125 C 52.046875 74.527344 53.5625 74.019531 55.125 73.5 C 55.125 75.015625 55.125 76.53125 55.125 78.09375 C 56.640625 79.105469 58.15625 80.113281 59.71875 81.15625 C 54.507812 84.363281 50.449219 84.492188 44.40625 84.21875 C 44.910156 81.691406 45.417969 79.164062 45.9375 76.5625 C 44.925781 76.5625 43.917969 76.5625 42.875 76.5625 C 42.875 75.550781 42.875 74.542969 42.875 73.5 Z M 42.875 73.5 "/>
<path style=" stroke:none;fill-rule:nonzero;fill:rgb(56.862748%,9.019608%,30.588236%);fill-opacity:1;" d="M 22.96875 45.9375 C 23.980469 46.441406 24.988281 46.949219 26.03125 47.46875 C 25.527344 49.996094 25.019531 52.523438 24.5 55.125 C 31.320312 54.367188 31.320312 54.367188 38.28125 53.59375 C 38.785156 52.078125 39.292969 50.5625 39.8125 49 C 39.8125 51.019531 39.8125 53.042969 39.8125 55.125 C 37.253906 55.742188 37.253906 55.742188 34.644531 56.367188 C 28.757812 57.664062 28.757812 57.664062 26.03125 62.78125 C 19.90625 55.507812 19.90625 55.507812 19.90625 52.0625 C 20.917969 52.0625 21.925781 52.0625 22.96875 52.0625 C 22.96875 50.042969 22.96875 48.019531 22.96875 45.9375 Z M 22.96875 45.9375 "/>
<path style=" stroke:none;fill-rule:nonzero;fill:rgb(62.7451%,3.921569%,32.549021%);fill-opacity:1;" d="M 79.625 13.78125 C 79.625 17.824219 79.625 21.867188 79.625 26.03125 C 78.109375 26.03125 76.59375 26.03125 75.03125 26.03125 C 74.777344 25.050781 74.527344 24.074219 74.265625 23.0625 C 72.304688 19.660156 72.304688 19.660156 69.039062 19.160156 C 65.941406 18.792969 62.828125 18.574219 59.71875 18.375 C 59.71875 17.871094 59.71875 17.363281 59.71875 16.84375 C 62.175781 16.328125 64.628906 15.820312 67.085938 15.3125 C 68.457031 15.027344 69.824219 14.742188 71.234375 14.453125 C 75.03125 13.78125 75.03125 13.78125 79.625 13.78125 Z M 79.625 13.78125 "/>
<path style=" stroke:none;fill-rule:nonzero;fill:rgb(50.980395%,23.529412%,34.509805%);fill-opacity:1;" d="M 73.5 50.53125 C 73.5 51.542969 73.5 52.550781 73.5 53.59375 C 70.914062 56.179688 70.914062 56.179688 67.375 58.1875 C 63.164062 57.710938 63.164062 57.710938 59.71875 56.65625 C 59.71875 54.636719 59.71875 52.613281 59.71875 50.53125 C 68.332031 48.808594 68.332031 48.808594 73.5 50.53125 Z M 73.5 50.53125 "/>
<path style=" stroke:none;fill-rule:nonzero;fill:rgb(11.764706%,37.64706%,11.372549%);fill-opacity:1;" d="M 87.28125 67.375 C 87.785156 69.394531 88.292969 71.417969 88.8125 73.5 C 90.328125 74.003906 91.84375 74.511719 93.40625 75.03125 C 92.394531 75.03125 91.386719 75.03125 90.34375 75.03125 C 89.839844 78.570312 89.332031 82.105469 88.8125 85.75 C 86.285156 86.761719 83.757812 87.769531 81.15625 88.8125 C 82.167969 86.792969 83.175781 84.769531 84.21875 82.6875 C 85.230469 83.191406 86.238281 83.699219 87.28125 84.21875 C 87.28125 78.660156 87.28125 73.101562 87.28125 67.375 Z M 87.28125 67.375 "/>
<path style=" stroke:none;fill-rule:nonzero;fill:rgb(4.313726%,30.588236%,52.549022%);fill-opacity:1;" d="M 21.4375 76.5625 C 28.898438 77.257812 32.753906 79.179688 38.28125 84.21875 C 37.269531 85.230469 36.261719 86.238281 35.21875 87.28125 C 32.917969 85.789062 30.621094 84.289062 28.328125 82.78125 C 27.050781 81.949219 25.769531 81.113281 24.453125 80.253906 C 23.457031 79.539062 22.460938 78.828125 21.4375 78.09375 C 21.4375 77.589844 21.4375 77.082031 21.4375 76.5625 Z M 21.4375 76.5625 "/>
<path style=" stroke:none;fill-rule:nonzero;fill:rgb(41.960785%,51.372552%,54.11765%);fill-opacity:1;" d="M 41.34375 88.8125 C 45.890625 88.8125 50.4375 88.8125 55.125 88.8125 C 55.125 90.328125 55.125 91.84375 55.125 93.40625 C 50.578125 93.40625 46.03125 93.40625 41.34375 93.40625 C 41.34375 91.890625 41.34375 90.375 41.34375 88.8125 Z M 41.34375 88.8125 "/>
<path style=" stroke:none;fill-rule:nonzero;fill:rgb(65.098041%,2.745098%,28.627452%);fill-opacity:1;" d="M 50.53125 13.78125 C 53.5625 15.296875 53.5625 15.296875 56.65625 16.84375 C 56.152344 21.898438 55.644531 26.949219 55.125 32.15625 C 53.609375 32.15625 52.09375 32.15625 50.53125 32.15625 C 50.53125 26.09375 50.53125 20.027344 50.53125 13.78125 Z M 50.53125 13.78125 "/>
<path style=" stroke:none;fill-rule:nonzero;fill:rgb(43.529412%,44.705883%,41.176471%);fill-opacity:1;" d="M 27.5625 47.46875 C 30.59375 47.46875 33.625 47.46875 36.75 47.46875 C 36.75 48.984375 36.75 50.5 36.75 52.0625 C 33.210938 52.566406 29.675781 53.074219 26.03125 53.59375 C 26.535156 51.574219 27.042969 49.550781 27.5625 47.46875 Z M 27.5625 47.46875 "/>
<path style=" stroke:none;fill-rule:nonzero;fill:rgb(75.686276%,40.784314%,33.725491%);fill-opacity:1;" d="M 70.4375 19.90625 C 71.953125 20.410156 73.46875 20.917969 75.03125 21.4375 C 75.03125 24.976562 75.03125 28.511719 75.03125 32.15625 C 73.011719 32.15625 70.988281 32.15625 68.90625 32.15625 C 69.410156 28.113281 69.917969 24.070312 70.4375 19.90625 Z M 70.4375 19.90625 "/>
<path style=" stroke:none;fill-rule:nonzero;fill:rgb(6.27451%,22.352941%,39.607844%);fill-opacity:1;" d="M 24.5 1.53125 C 26.015625 2.035156 27.53125 2.542969 29.09375 3.0625 C 30.242188 6.125 30.242188 6.125 30.625 9.1875 C 29.09375 10.71875 29.09375 10.71875 25.171875 10.8125 C 23.324219 10.765625 23.324219 10.765625 21.4375 10.71875 C 23.457031 10.214844 25.480469 9.707031 27.5625 9.1875 C 27.5625 8.175781 27.5625 7.167969 27.5625 6.125 C 26.046875 5.621094 24.53125 5.113281 22.96875 4.59375 C 23.472656 3.582031 23.980469 2.574219 24.5 1.53125 Z M 24.5 1.53125 "/>
<path style=" stroke:none;fill-rule:nonzero;fill:rgb(5.490196%,39.215687%,15.294118%);fill-opacity:1;" d="M 81.15625 82.6875 C 81.15625 83.699219 81.15625 84.707031 81.15625 85.75 C 74.796875 90.519531 74.796875 90.519531 69.960938 89.867188 C 69.105469 89.519531 68.253906 89.171875 67.375 88.8125 C 75.988281 82.6875 75.988281 82.6875 81.15625 82.6875 Z M 81.15625 82.6875 "/>
<path style=" stroke:none;fill-rule:nonzero;fill:rgb(7.450981%,19.607843%,34.509805%);fill-opacity:1;" d="M 68.90625 1.53125 C 70.925781 2.035156 72.949219 2.542969 75.03125 3.0625 C 74.527344 4.074219 74.019531 5.082031 73.5 6.125 C 72.488281 6.125 71.480469 6.125 70.4375 6.125 C 70.4375 7.136719 70.4375 8.144531 70.4375 9.1875 C 72.457031 8.683594 74.480469 8.175781 76.5625 7.65625 C 76.5625 8.667969 76.5625 9.675781 76.5625 10.71875 C 74.035156 10.71875 71.507812 10.71875 68.90625 10.71875 C 68.90625 7.6875 68.90625 4.65625 68.90625 1.53125 Z M 68.90625 1.53125 "/>
</g>
</svg>
